<svg width="94" height="94" viewBox="0 0 94 94" fill="none" xmlns="http://www.w3.org/2000/svg">
<circle cx="46.7338" cy="46.7338" r="46.7338" fill="#A577FC"/>
<path d="M62.5416 57.7083C62.5416 58.4819 62.2343 59.2237 61.6873 59.7707C61.1403 60.3177 60.3985 60.625 59.6249 60.625H33.3749C32.6014 60.625 31.8595 60.3177 31.3125 59.7707C30.7655 59.2237 30.4583 58.4819 30.4583 57.7083V41.6667C30.4583 40.8931 30.7655 40.1513 31.3125 39.6043C31.8595 39.0573 32.6014 38.75 33.3749 38.75H39.2083L42.1249 34.375H50.8749L53.7916 38.75H59.6249C60.3985 38.75 61.1403 39.0573 61.6873 39.6043C62.2343 40.1513 62.5416 40.8931 62.5416 41.6667V57.7083Z" fill="#211E41" stroke="#211E41" stroke-width="2.91667" stroke-linecap="round" stroke-linejoin="round"/>
<path d="M46.5001 54.7917C49.7217 54.7917 52.3334 52.18 52.3334 48.9583C52.3334 45.7367 49.7217 43.125 46.5001 43.125C43.2784 43.125 40.6667 45.7367 40.6667 48.9583C40.6667 52.18 43.2784 54.7917 46.5001 54.7917Z" fill="#A577FC" stroke="#211E41" stroke-width="2.91667" stroke-linecap="round" stroke-linejoin="round"/>
</svg>
